# AST/ASF file generated using VICON BodyLanguage
# -----------------------------------------------
:version 1.10
:name VICON
:units
  mass 1.0
  length 0.45
  angle deg
:documentation
   .ast/.asf automatically generated from VICON data using
   VICON BodyBuilder and BodyLanguage model FoxedUp or BRILLIANT.MOD
:root
   order TX TY TZ RX RY RZ
   axis XYZ
   position 0 0 0  
   orientation 0 0 0 
:bonedata
  begin
     id 1 
     name lhipjoint
     direction 0.584852 -0.759097 0.285867 
     length 2.43633 
     axis 0 0 0  XYZ
  end
  begin
     id 2 
     name lfemur
     direction 0.34202 -0.939693 0  
     length 7.14704  
     axis 0 0 20  XYZ
    dof rx ry rz
    limits (-160.0 20.0)
           (-70.0 70.0)
           (-60.0 70.0)
  end
  begin
     id 3 
     name ltibia
     direction 0.342022 -0.939692 0   
     length 7.68483   
     axis 0 0 20   XYZ
    dof rx
    limits (-10.0 170.0)
  end
  begin
     id 4 
     name lfoot
     direction 0.0999605 -0.274639 0.956337   
     length 2.40452   
     axis -90 7.62852e-016 20   XYZ
    dof rx rz
    limits (-45.0 90.0)
           (-70.0 20.0)
  end
  begin
     id 5 
     name ltoes
     direction 1.53468e-011 -4.21881e-011 1   
     length 1.19837   
     axis -90 7.62852e-016 20   XYZ
    dof rx
    limits (-90.0 20.0)
  end
  begin
     id 6 
     name rhipjoint
     direction -0.569886 -0.769002 0.289597   
     length 2.40495  
     axis 0 0 0  XYZ 
  end
  begin
     id 7 
     name rfemur
     direction -0.34202 -0.939693 0   
     length 7.45086   
     axis 0 0 -20   XYZ
    dof rx ry rz
    limits (-160.0 20.0)
           (-70.0 70.0)
           (-70.0 60.0)
  end
  begin
     id 8 
     name rtibia
     direction -0.34202 -0.939693 0   
     length 7.76831   
     axis 0 0 -20   XYZ
    dof rx
    limits (-10.0 170.0)
 end
 begin
     id 9 
     name rfoot
     direction -0.0798572 -0.219406 0.97236   
     length 2.35911  
     axis -90 -7.62852e-016 -20   XYZ
    dof rx rz
    limits (-45.0 90.0)
           (-20.0 70.0)
  end
  begin
     id 10 
     name rtoes
     direction -1.53469e-011 -4.21728e-011 1   
     length 1.18261   
     axis -90 -7.62852e-016 -20   XYZ
    dof rx
    limits (-90.0 20.0)
  end
  begin
     id 11 
     name lowerback
     direction 0.0242088 0.999437 0.0232389   
     length 2.1561   
     axis 0 0 0   XYZ
    dof rx ry rz
    limits (-20.0 45.0)
           (-30.0 30.0)
           (-30.0 30.0)
  end
  begin
     id 12 
     name upperback
     direction -0.0356893 0.999013 -0.0264323   
     length 2.14431   
     axis 0 0 0   XYZ
    dof rx ry rz
    limits (-20.0 45.0)
           (-30.0 30.0)
           (-30.0 30.0)
  end
  begin
     id 13 
     name thorax
     direction -0.0472163 0.998194 -0.0371284   
     length 2.16169   
     axis 0 0 0   XYZ
    dof rx ry rz
    limits (-20.0 45.0)
           (-30.0 30.0)
           (-30.0 30.0)
  end
  begin
     id 14 
     name lowerneck
     direction 0.00863244 0.999921 0.00911972   
     length 1.58651   
     axis 0 0 0   XYZ
    dof rx ry rz
    limits (-20.0 45.0)
           (-30.0 30.0)
           (-30.0 30.0)
  end
  begin
     id 15 
     name upperneck
     direction 0.149523 0.979068 -0.138086   
     length 1.57486   
     axis 0 0 0   XYZ
    dof rx ry rz
    limits (-20.0 45.0)
           (-30.0 30.0)
           (-30.0 30.0)
  end
  begin
     id 16
     name head
     direction 0.0445219 0.997708 -0.0509576  
     length 1.6019  
     axis 0 0 0   XYZ
    dof rx ry rz
    limits (-20.0 45.0)
           (-30.0 30.0)
           (-30.0 30.0)
  end
  begin
     id 17 
     name lclavicle
     direction 0.911271 0.381667 -0.154644  
     length 3.80848  
     axis 0 0 0   XYZ
    dof ry rz
    limits (-20.0 10.0)
           (0.0 20.0)
  end
  begin
     id 18 
     name lhumerus
     direction 1 -4.49003e-011 2.1308e-027   
     length 5.19069   
     axis 180 -30 -90   XYZ
    dof rx ry rz
    limits (-60.0 90.0)
           (-90.0 90.0)
           (-90.0 90.0)
  end
  begin
     id 19
     name lradius
     direction 1 -4.48914e-011 4.01554e-027   
     length 3.30016   
     axis 180 -30 -90   XYZ
    dof rx
    limits (-10.0 170.0)
  end
  begin
     id 20
     name lwrist
     direction 1 -4.49003e-011 1.1934e-026   
     length 1.65008   
     axis -8.46377e-015 90 90   XYZ
    dof ry
    limits (-180.0 0.0)
 end
  begin
     id 21 
     name lhand
     direction 1 -4.49034e-011 2.38659e-026   
     length 0.707698   
     axis -1.52313e-014 90 90   XYZ
    dof rx rz
    limits (-90.0 90.0)
           (-45.0 45.0)
  end
  begin
     id 22 
     name lfingers
     direction 1 -4.48691e-011 4.77775e-026   
     length 0.570564   
     axis -3.04623e-014 90 90   XYZ
    dof rx
    limits (0.0 90.0)
  end
  begin
     id 23
     name lthumb
     direction 0.707107 -6.34832e-011 0.707107   
     length 0.819219   
     axis -90 45 -1.62303e-014   XYZ
    dof rx rz
    limits (-45.0 45.0)
           (-45.0 45.0)
  end
  begin
     id 24 
     name rclavicle
     direction -0.815579 0.573708 -0.0754329   
     length 3.54371  
     axis 0 0 0   XYZ 
    dof ry rz
    limits (-10.0 20.0)
           (-20.0 0.0)
  end
  begin
     id 25 
     name rhumerus
     direction -1 -4.48956e-011 3.05351e-028  
     length 5.23924   
     axis 180 30 90   XYZ
    dof rx ry rz
    limits (-90.0 60.0)
           (-90.0 90.0)
           (-90.0 90.0)
  end
  begin
     id 26 
     name rradius
     direction -1 -4.49013e-011 3.53849e-027   
     length 3.32953   
     axis 180 30 90   XYZ
    dof rx
    limits (-10.0 170.0)
  end
  begin
     id 27 
     name rwrist
     direction -1 -4.48901e-011 1.19374e-026   
     length 1.66477   
     axis -8.46377e-015 -90 -90   XYZ
    dof ry
    limits (-180.0 0.0)
  end
  begin
     id 28
     name rhand
     direction -1 -4.48877e-011 2.38764e-026   
     length 0.607414   
     axis -1.52313e-014 -90 -90   XYZ
    dof rx rz
    limits (-90.0 90.0)
           (-45.0 45.0)
  end
  begin
     id 29
     name rfingers
     direction -1 -4.48882e-011 4.77521e-026   
     length 0.489712   
     axis -3.04623e-014 -90 -90   XYZ
    dof rx
    limits (0.0 90.0)
  end
  begin
     id 30
     name rthumb
     direction -0.707107 -6.34974e-011 0.707107   
     length 0.703132   
     axis -90 -45 1.62303e-014   XYZ
    dof rx rz
    limits (-45.0 45.0)
           (-45.0 45.0)
  end
:hierarchy
  begin
    root lhipjoint rhipjoint lowerback
    lhipjoint lfemur
    lfemur ltibia
    ltibia lfoot
    lfoot ltoes
    rhipjoint rfemur
    rfemur rtibia
    rtibia rfoot
    rfoot rtoes
    lowerback upperback
    upperback thorax
    thorax lowerneck lclavicle rclavicle
    lowerneck upperneck
    upperneck head
    lclavicle lhumerus
    lhumerus lradius
    lradius lwrist
    lwrist lhand lthumb
    lhand lfingers
    rclavicle rhumerus
    rhumerus rradius
    rradius rwrist
    rwrist rhand rthumb
    rhand rfingers
  end

#!OML:ASF E:\VariousWalksJay\Project 1\Capture day 1\Session 1\Actor2.ASF
:FULLY-SPECIFIED
:DEGREES
32
root 29.9694 15.2546 -28.0294 21.7084 -44.043 -3.95405
lowerback 40.2278 -1.41042 3.76111
upperback 17.963 -1.65461 0.12535
thorax 0.535789 -1.03971 -1.25665
lowerneck 2.55606 1.97864 4.73126
upperneck -28.6365 1.93058 -4.3783
head -9.28436 0.654332 -2.47026
rclavicle 1.51076e-014 -1.26228e-014
rhumerus 4.78277 27.5425 -67.2578
rradius 111.74
rwrist 6.4334
rhand -33.0142 -10.2565
rfingers 7.12502
rthumb -6.22793 -40.1449
lclavicle 1.51076e-014 -1.26228e-014
lhumerus 67.8296 2.0389 41.5037
lradius 73.6654
lwrist 54.2715
lhand -34.0628 12.6156
lfingers 7.12502
lthumb -7.24014 42.4718
rfemur -59.1807 0.759357 15.09
rtibia 81.2417
rfoot -24.878 -13.3164
rtoes -29.2427
lfemur -65.0036 4.61724 -29.6991
ltibia 68.3968
lfoot -25.2769 16.2337
ltoes -0.484759
33
root 29.9771 15.2607 -28.0105 21.548 -44.1405 -3.95531
lowerback 40.2167 -1.45273 3.71293
upperback 18.0247 -1.73497 0.0313305
thorax 0.601615 -1.07713 -1.30628
lowerneck 2.67502 2.00511 4.64507
upperneck -28.5739 1.99695 -4.27259
head -9.28383 0.68796 -2.42462
rclavicle 2.62396e-014 -7.35503e-014
rhumerus 4.89825 27.6327 -67.2501
rradius 111.745
rwrist 6.35168
rhand -32.9844 -10.2492
rfingers 7.12502
rthumb -6.19918 -40.1385
lclavicle 2.62396e-014 -7.35503e-014
lhumerus 67.7445 2.16553 41.3494
lradius 73.5494
lwrist 54.3014
lhand -33.9906 12.6591
lfingers 7.12502
lthumb -7.17047 42.5176
rfemur -59.8442 0.677679 14.9056
rtibia 82.2459
rfoot -23.1566 -12.6039
rtoes -28.3034
lfemur -64.7106 4.59853 -29.7331
ltibia 68.2832
lfoot -25.2899 16.335
ltoes -0.485158
34
root 29.9856 15.2685 -27.9912 21.3674 -44.2477 -3.94706
lowerback 40.2189 -1.50761 3.66044
upperback 18.0908 -1.83264 -0.0771489
thorax 0.667185 -1.1226 -1.36314
lowerneck 2.8171 2.03839 4.5312
upperneck -28.5226 2.07488 -4.15116
head -9.29186 0.728456 -2.37042
rclavicle -3.18055e-015 1.04362e-014
rhumerus 5.04177 27.7526 -67.2547
rradius 111.75
rwrist 6.26772
rhand -32.9503 -10.2318
rfingers 7.12502
rthumb -6.16622 -40.122
lclavicle -3.18055e-015 1.04362e-014
lhumerus 67.6338 2.36253 41.1154
lradius 73.4441
lwrist 54.3888
lhand -34.0434 12.6333
lfingers 7.12502
lthumb -7.22147 42.4901
rfemur -60.5787 0.598138 14.7124
rtibia 83.3086
rfoot -21.284 -11.9446
rtoes -26.8597
lfemur -64.3903 4.57467 -29.7706
ltibia 68.1613
lfoot -25.3243 16.4432
ltoes -0.453128
35
root 29.9944 15.276 -27.972 21.1683 -44.3507 -3.92794
lowerback 40.2309 -1.57408 3.60696
upperback 18.1628 -1.94483 -0.19138
thorax 0.73542 -1.17499 -1.42079
lowerneck 2.98162 2.07614 4.38535
upperneck -28.4859 2.16034 -4.01291
head -9.30996 0.774076 -2.3063
rclavicle 5.96354e-014 -9.93923e-016
rhumerus 5.20586 27.894 -67.2595
rradius 111.763
rwrist 6.18118
rhand -32.9103 -10.2141
rfingers 7.12502
rthumb -6.1276 -40.1055
lclavicle 5.96354e-014 -9.93923e-016
lhumerus 67.5128 2.58987 40.8888
lradius 73.3279
lwrist 54.4655
lhand -34.0203 12.6362
lfingers 7.12502
lthumb -7.19913 42.4938
rfemur -61.3808 0.508808 14.5221
rtibia 84.4166
rfoot -19.3301 -11.3574
rtoes -24.892
lfemur -64.0591 4.56278 -29.822
ltibia 68.0397
lfoot -25.371 16.5312
ltoes -0.400929
36
root 30.0032 15.2834 -27.952 20.9385 -44.4529 -3.89423
lowerback 40.2625 -1.65845 3.552
upperback 18.2412 -2.07947 -0.318599
thorax 0.803592 -1.23783 -1.4838
lowerneck 3.16727 2.12213 4.20198
upperneck -28.461 2.25944 -3.85231
head -9.33687 0.82774 -2.22986
rclavicle -7.55382e-015 -7.60351e-014
rhumerus 5.40253 28.0694 -67.2651
rradius 111.779
rwrist 6.10122
rhand -32.8759 -10.2204
rfingers 7.12502
rthumb -6.09441 -40.1127
lclavicle -7.55382e-015 -7.60351e-014
lhumerus 67.3679 2.87731 40.6262
lradius 73.2131
lwrist 54.5622
lhand -34.0533 12.6262
lfingers 7.12502
lthumb -7.23103 42.4826
rfemur -62.2179 0.412665 14.3327
rtibia 85.5414
rfoot -17.4427 -10.8378
rtoes -22.5051
lfemur -63.703 4.56694 -29.8918
ltibia 67.9192
lfoot -25.4389 16.6013
ltoes -0.328199
37
root 30.0116 15.2897 -27.931 20.6672 -44.5584 -3.83521
lowerback 40.3129 -1.7565 3.49143
upperback 18.3298 -2.23349 -0.461529
thorax 0.876001 -1.3097 -1.55403
lowerneck 3.37046 2.1727 3.99034
upperneck -28.448 2.36641 -3.67316
head -9.37216 0.885955 -2.1435
rclavicle 0 7.14631e-014
rhumerus 5.64249 28.2703 -67.2634
rradius 111.79
rwrist 6.01949
rhand -32.841 -10.2249
rfingers 7.12502
rthumb -6.06071 -40.1182
lclavicle 0 7.14631e-014
lhumerus 67.204 3.19952 40.3257
lradius 73.1056
lwrist 54.669
lhand -34.0387 12.6369
lfingers 7.12502
lthumb -7.21692 42.4939
rfemur -63.0697 0.310347 14.1406
rtibia 86.6581
rfoot -15.7279 -10.3998
rtoes -20.0066
lfemur -63.3239 4.59613 -29.9938
ltibia 67.8094
lfoot -25.5311 16.6526
ltoes -0.250504
38
root 30.0197 15.2952 -27.9094 20.3712 -44.6467 -3.76423
lowerback 40.3744 -1.88223 3.44314
upperback 18.4272 -2.417 -0.618595
thorax 0.952624 -1.39421 -1.63579
lowerneck 3.58424 2.23195 3.74037
upperneck -28.4418 2.48784 -3.46653
head -9.41297 0.951979 -2.04277
rclavicle -2.8625e-014 5.33737e-014
rhumerus 5.93365 28.5039 -67.2555
rradius 111.789
rwrist 5.94246
rhand -32.7959 -10.2363
rfingers 7.12502
rthumb -6.01714 -40.1309
lclavicle -2.8625e-014 5.33737e-014
lhumerus 67.0234 3.56432 40.0224
lradius 72.9865
lwrist 54.7576
lhand -33.9381 12.6927
lfingers 7.12502
lthumb -7.11985 42.5529
rfemur -63.9212 0.198136 13.9674
rtibia 87.7351
rfoot -14.2978 -10.0432
rtoes -17.5965
lfemur -62.9326 4.63457 -30.11
ltibia 67.7151
lfoot -25.631 16.6868
ltoes -0.198055
39
root 30.027 15.2983 -27.8874 20.0544 -44.7172 -3.67937
lowerback 40.4408 -2.02058 3.40699
upperback 18.5311 -2.61162 -0.781216
thorax 1.0336 -1.48282 -1.72609
lowerneck 3.80866 2.28871 3.4803
upperneck -28.4373 2.60699 -3.24753
head -9.45755 1.01642 -1.93626
rclavicle -2.38542e-015 -4.03533e-014
rhumerus 6.25337 28.7359 -67.2289
rradius 111.781
rwrist 5.85847
rhand -32.7627 -10.2609
rfingers 7.12502
rthumb -5.98507 -40.1563
lclavicle -2.38542e-015 -4.03533e-014
lhumerus 66.8422 3.92224 39.6964
lradius 72.8751
lwrist 54.84
lhand -33.7958 12.7607
lfingers 7.12502
lthumb -6.98249 42.6255
rfemur -64.7701 0.079115 13.8155
rtibia 88.7519
rfoot -13.226 -9.77108
rtoes -15.4891
lfemur -62.5444 4.69142 -30.2477
ltibia 67.6461
lfoot -25.7371 16.6971
ltoes -0.170066
40
root 30.0335 15.299 -27.8646 19.7189 -44.7764 -3.58536
lowerback 40.5133 -2.17459 3.382
upperback 18.6442 -2.82198 -0.956307
thorax 1.12086 -1.57746 -1.83026
lowerneck 4.03131 2.34844 3.20304
upperneck -28.4283 2.73207 -3.00955
head -9.50133 1.08327 -1.82083
rclavicle 7.95139e-016 4.49253e-014
rhumerus 6.60298 28.9769 -67.1912
rradius 111.768
rwrist 5.77343
rhand -32.7344 -10.3049
rfingers 7.12502
rthumb -5.9578 -40.2011
lclavicle 7.95139e-016 4.49253e-014
lhumerus 66.6694 4.28792 39.3988
lradius 72.7442
lwrist 54.8728
lhand -33.5071 12.8883
lfingers 7.12502
lthumb -6.70381 42.7622
rfemur -65.6051 -0.0358763 13.6915
rtibia 89.6824
rfoot -12.5279 -9.60432
rtoes -13.9355
lfemur -62.1583 4.77092 -30.404
ltibia 67.6056
lfoot -25.8577 16.6894
ltoes -0.167713
41
root 30.039 15.298 -27.8406 19.3706 -44.8365 -3.49215
lowerback 40.5944 -2.33703 3.36972
upperback 18.7647 -3.03915 -1.14299
thorax 1.21174 -1.67385 -1.95095
lowerneck 4.24345 2.40894 2.91576
upperneck -28.4036 2.85852 -2.76021
head -9.53854 1.15054 -1.69962
rclavicle 3.81667e-014 -9.54166e-015
rhumerus 6.98668 29.2218 -67.1364
rradius 111.741
rwrist 5.67222
rhand -32.7195 -10.369
rfingers 7.12502
rthumb -5.94339 -40.2657
lclavicle 3.81667e-014 -9.54166e-015
lhumerus 66.4886 4.66737 39.0256
lradius 72.638
lwrist 54.9499
lhand -33.2774 13.0172
lfingers 7.12502
lthumb -6.48202 42.898
rfemur -66.4148 -0.131158 13.5982
rtibia 90.5041
rfoot -12.1893 -9.54476
rtoes -12.9252
lfemur -61.7701 4.87367 -30.5696
ltibia 67.5953
lfoot -26.0062 16.6695
ltoes -0.168431
42
root 30.0437 15.2951 -27.8168 19.0349 -44.8854 -3.40548
lowerback 40.6706 -2.51168 3.37234
upperback 18.8883 -3.2661 -1.33824
thorax 1.30509 -1.77318 -2.08537
lowerneck 4.43743 2.47302 2.61392
upperneck -28.362 2.9903 -2.49632
head -9.5674 1.22024 -1.57098
rclavicle -2.54444e-014 -1.08139e-013
rhumerus 7.39808 29.4715 -67.0731
rradius 111.705
rwrist 5.56551
rhand -32.7033 -10.4469
rfingers 7.12502
rthumb -5.92776 -40.344
lclavicle -2.54444e-014 -1.08139e-013
lhumerus 66.3106 5.05919 38.6511
lradius 72.5302
lwrist 55.0116
lhand -33.1363 13.0956
lfingers 7.12502
lthumb -6.34579 42.9805
rfemur -67.227 -0.20815 13.5483
rtibia 91.2042
rfoot -12.1435 -9.60544
rtoes -12.4014
lfemur -61.4082 4.98732 -30.734
ltibia 67.6154
lfoot -26.1657 16.6368
ltoes -0.160222
43
root 30.0477 15.2899 -27.7936 18.7153 -44.9128 -3.31514
lowerback 40.7371 -2.70069 3.38494
upperback 19.0115 -3.50603 -1.53709
thorax 1.39826 -1.87747 -2.22471
lowerneck 4.6089 2.54415 2.28826
upperneck -28.3035 3.13153 -2.21609
head -9.58724 1.29512 -1.43303
rclavicle -7.15625e-015 3.33958e-014
rhumerus 7.82855 29.7305 -66.9995
rradius 111.669
rwrist 5.43778
rhand -32.69 -10.5469
rfingers 7.12502
rthumb -5.9149 -40.4443
lclavicle -7.15625e-015 3.33958e-014
lhumerus 66.1297 5.478 38.2398
lradius 72.4329
lwrist 55.1
lhand -32.9536 13.2024
lfingers 7.12502
lthumb -6.16939 43.0926
rfemur -68.0576 -0.278303 13.5399
rtibia 91.7782
rfoot -12.3117 -9.78997
rtoes -12.2963
lfemur -61.085 5.10232 -30.9025
ltibia 67.6643
lfoot -26.3329 16.5869
ltoes -0.147265
44
root 30.0509 15.2831 -27.7702 18.4089 -44.9404 -3.22671
lowerback 40.7993 -2.88516 3.40281
upperback 19.1282 -3.73777 -1.72982
thorax 1.48461 -1.97763 -2.36292
lowerneck 4.79202 2.6112 1.94234
upperneck -28.2407 3.2636 -1.93363
head -9.60928 1.36747 -1.29049
rclavicle -7.95139e-015 -1.98785e-016
rhumerus 8.24791 29.986 -66.9111
rradius 111.636
rwrist 5.29893
rhand -32.6723 -10.6524
rfingers 7.12502
rthumb -5.89787 -40.5503
lclavicle -7.95139e-015 -1.98785e-016
lhumerus 65.9464 5.905 37.7744
lradius 72.3634
lwrist 55.2444
lhand -32.8027 13.3161
lfingers 7.12502
lthumb -6.02369 43.2105
rfemur -68.8973 -0.320894 13.5655
rtibia 92.2161
rfoot -12.644 -10.0702
rtoes -12.4318
lfemur -60.7867 5.22848 -31.0738
ltibia 67.7369
lfoot -26.5144 16.5272
ltoes -0.121801
45
root 30.0537 15.2746 -27.7479 18.1232 -44.9528 -3.12773
lowerback 40.853 -3.07701 3.41685
upperback 19.2424 -3.97858 -1.92416
thorax 1.5687 -2.082 -2.49809
lowerneck 4.93678 2.68446 1.58221
upperneck -28.1633 3.40202 -1.64376
head -9.61993 1.44325 -1.1429
rclavicle -3.33958e-014 -5.78463e-014
rhumerus 8.68066 30.252 -66.814
rradius 111.617
rwrist 5.14471
rhand -32.6381 -10.7467
rfingers 7.12502
rthumb -5.86483 -40.6455
lclavicle -3.33958e-014 -5.78463e-014
lhumerus 65.7578 6.36292 37.2583
lradius 72.3155
lwrist 55.4356
lhand -32.7201 13.3916
lfingers 7.12502
lthumb -5.94396 43.2882
rfemur -69.77 -0.351908 13.6229
rtibia 92.5222
rfoot -13.0708 -10.4127
rtoes -12.6825
lfemur -60.5339 5.35442 -31.2537
ltibia 67.8313
lfoot -26.6951 16.4486
ltoes -0.096972
